<?xml version="1.0" encoding="UTF-8" standalone="no"?>
<svg
   height="16"
   viewBox="0 -960 800 640"
   width="20"
   fill="#e3e3e3"
   version="1.1"
   id="svg4"
   sodipodi:docname="email.svg"
   inkscape:version="1.2.2 (b0a84865, 2022-12-01)"
   xmlns:inkscape="http://www.inkscape.org/namespaces/inkscape"
   xmlns:sodipodi="http://sodipodi.sourceforge.net/DTD/sodipodi-0.dtd"
   xmlns="http://www.w3.org/2000/svg"
   xmlns:svg="http://www.w3.org/2000/svg">
  <defs
     id="defs8" />
  <sodipodi:namedview
     id="namedview6"
     pagecolor="#505050"
     bordercolor="#ffffff"
     borderopacity="1"
     inkscape:showpageshadow="0"
     inkscape:pageopacity="0"
     inkscape:pagecheckerboard="1"
     inkscape:deskcolor="#505050"
     showgrid="false"
     inkscape:zoom="9.8333333"
     inkscape:cx="9.9661017"
     inkscape:cy="8.0338983"
     inkscape:window-width="1309"
     inkscape:window-height="456"
     inkscape:window-x="0"
     inkscape:window-y="40"
     inkscape:window-maximized="0"
     inkscape:current-layer="svg4" />
  <path
     d="M 80,-320 Q 47,-320 23.5,-343.5 0,-367 0,-400 V -880 Q 0,-913 23.5,-936.5 47,-960 80,-960 h 640 q 33,0 56.5,23.5 23.5,23.5 23.5,56.5 v 480 q 0,33 -23.5,56.5 Q 753,-320 720,-320 Z m 320,-287 q 5,0 10.5,-1.5 5.5,-1.5 10.5,-4.5 l 283,-177 q 8,-5 12,-12.5 4,-7.5 4,-16.5 0,-20 -17,-30 -17,-10 -35,1 L 400,-680 132,-848 q -18,-11 -35,-0.5 -17,10.5 -17,29.5 0,10 4,17.5 4,7.5 12,11.5 l 283,177 q 5,3 10.5,4.5 5.5,1.5 10.5,1.5 z"
     id="path2" />
</svg>
