<?xml version="1.0" encoding="UTF-8" standalone="no"?>
<!-- Uploaded to: SVG Repo, www.svgrepo.com, Generator: SVG Repo Mixer Tools -->

<svg
   fill="#000000"
   width="749.84998"
   height="749.92499"
   viewBox="0 0 29.993999 29.997"
   version="1.1"
   id="svg6"
   sodipodi:docname="signal-svgrepo-com.svg"
   inkscape:version="1.2.2 (b0a84865, 2022-12-01)"
   xmlns:inkscape="http://www.inkscape.org/namespaces/inkscape"
   xmlns:sodipodi="http://sodipodi.sourceforge.net/DTD/sodipodi-0.dtd"
   xmlns="http://www.w3.org/2000/svg"
   xmlns:svg="http://www.w3.org/2000/svg"
   xmlns:rdf="http://www.w3.org/1999/02/22-rdf-syntax-ns#"
   xmlns:cc="http://creativecommons.org/ns#"
   xmlns:dc="http://purl.org/dc/elements/1.1/">
  <defs
     id="defs10" />
  <sodipodi:namedview
     id="namedview8"
     pagecolor="#505050"
     bordercolor="#ffffff"
     borderopacity="1"
     inkscape:showpageshadow="0"
     inkscape:pageopacity="0"
     inkscape:pagecheckerboard="1"
     inkscape:deskcolor="#505050"
     showgrid="false"
     inkscape:zoom="0.295"
     inkscape:cx="376.27119"
     inkscape:cy="376.27119"
     inkscape:window-width="1309"
     inkscape:window-height="456"
     inkscape:window-x="0"
     inkscape:window-y="40"
     inkscape:window-maximized="0"
     inkscape:current-layer="svg6" />
  <title
     id="title2">signal</title>
  <path
     d="M 14.997,2.814 C 8.271,2.818 2.819,8.271 2.819,14.998 c 0,2.404 0.696,4.645 1.897,6.533 L 4.687,21.482 3.515,26.481 8.514,25.309 c 1.841,1.176 4.086,1.874 6.493,1.874 6.729,0 12.184,-5.455 12.184,-12.184 0,-6.729 -5.455,-12.184 -12.184,-12.184 -0.004,0 -0.007,0 -0.011,0 h 10e-4 z m -6.959,23.872 -2.012,0.469 0.319,1.368 1.481,-0.344 c 1.024,0.57 2.211,1.044 3.46,1.36 l 0.103,0.022 0.337,-1.363 C 10.332,27.844 9.107,27.323 7.988,26.643 l 0.06,0.034 z M 1.477,23.64 2.845,23.959 3.314,21.947 C 2.671,20.885 2.152,19.656 1.822,18.351 L 1.802,18.258 0.44,18.595 c 0.338,1.352 0.812,2.539 1.421,3.64 L 1.822,22.159 Z M 4.779,27.441 1.876,28.12 2.553,25.217 1.185,24.896 0.508,27.799 c -0.024,0.096 -0.037,0.207 -0.037,0.321 0,0.776 0.629,1.406 1.406,1.406 0.114,0 0.224,-0.014 0.33,-0.039 l -0.01,0.002 2.9,-0.665 z M 12.961,1.559 c 0.612,-0.097 1.317,-0.152 2.036,-0.152 0.719,0 1.424,0.055 2.112,0.162 l -0.077,-0.01 0.214,-1.39 C 16.571,0.062 15.792,0 14.999,0 14.206,0 13.427,0.061 12.667,0.18 l 0.085,-0.011 z m 14.876,5.687 -1.205,0.721 c 0.666,1.083 1.201,2.337 1.538,3.669 l 0.02,0.094 1.363,-0.337 C 29.159,9.822 28.569,8.44 27.799,7.181 l 0.037,0.065 z M 4.058,6.936 C 4.88,5.829 5.83,4.879 6.901,4.083 L 6.937,4.057 6.093,2.925 C 4.875,3.83 3.83,4.875 2.954,6.053 L 2.926,6.093 Z M 23.057,4.057 c 1.107,0.822 2.057,1.772 2.853,2.843 l 0.026,0.036 1.132,-0.843 C 26.163,4.875 25.118,3.83 23.94,2.954 L 23.9,2.926 Z m 2.879,19.004 c -0.822,1.106 -1.772,2.055 -2.843,2.851 l -0.036,0.026 0.835,1.132 c 1.221,-0.905 2.269,-1.95 3.148,-3.128 l 0.028,-0.04 z m -8.903,5.377 c -0.612,0.097 -1.317,0.152 -2.036,0.152 -0.719,0 -1.424,-0.055 -2.112,-0.162 l 0.077,0.01 -0.212,1.39 c 0.675,0.107 1.454,0.169 2.247,0.169 0.793,0 1.572,-0.061 2.332,-0.18 l -0.085,0.011 z M 29.554,18.597 28.192,18.26 c -0.358,1.428 -0.893,2.683 -1.593,3.827 l 0.034,-0.059 1.205,0.726 c 0.734,-1.196 1.324,-2.581 1.695,-4.053 l 0.022,-0.103 z m -0.967,-3.599 c 0,0.003 0,0.006 0,0.009 0,0.716 -0.055,1.419 -0.162,2.104 l 0.01,-0.076 1.39,0.21 c 0.107,-0.675 0.169,-1.454 0.169,-2.247 0,-0.793 -0.061,-1.572 -0.18,-2.331 l 0.011,0.085 -1.39,0.211 c 0.097,0.61 0.152,1.312 0.152,2.028 0,0.003 0,0.006 0,0.009 v 0 z m -5.838,12.839 -0.722,-1.205 c -1.083,0.666 -2.337,1.201 -3.669,1.538 l -0.094,0.02 0.337,1.363 c 1.572,-0.394 2.954,-0.984 4.213,-1.754 l -0.065,0.037 z M 1.407,14.997 c 0,-0.003 0,-0.006 0,-0.009 0,-0.716 0.055,-1.419 0.162,-2.104 L 1.559,12.96 0.169,12.75 C 0.062,13.425 0,14.204 0,14.997 0,15.79 0.061,16.569 0.179,17.328 L 0.168,17.243 1.558,17.032 C 1.461,16.422 1.406,15.72 1.406,15.004 c 0,-0.002 0,-0.005 0,-0.007 v 0 z M 2.157,7.246 C 1.423,8.441 0.834,9.824 0.462,11.294 L 0.44,11.397 1.802,11.734 C 2.16,10.306 2.696,9.051 3.397,7.907 L 3.363,7.966 Z M 18.596,0.44 18.259,1.802 c 1.428,0.358 2.683,0.893 3.827,1.593 L 22.027,3.361 22.753,2.156 C 21.557,1.422 20.172,0.832 18.7,0.461 L 18.597,0.439 Z m -7.198,0 0.337,1.362 C 10.307,2.16 9.052,2.695 7.908,3.395 L 7.967,3.361 7.245,2.156 C 8.44,1.422 9.824,0.833 11.294,0.461 l 0.103,-0.022 z"
     id="path4" />
  <metadata
     id="metadata239">
    <rdf:RDF>
      <cc:Work
         rdf:about="">
        <dc:title>signal</dc:title>
      </cc:Work>
    </rdf:RDF>
  </metadata>
</svg>
